<?xml version="1.0" encoding="utf-8"?>
<!-- Generator: Adobe Illustrator 22.0.1, SVG Export Plug-In . SVG Version: 6.00 Build 0)  -->
<svg version="1.1" id="Layer_1" xmlns="http://www.w3.org/2000/svg" xmlns:xlink="http://www.w3.org/1999/xlink" x="0px" y="0px"
	 viewBox="0 0 73.9 79.8" style="enable-background:new 0 0 73.9 79.8;" xml:space="preserve">
<path d="M67.9,14.9c4.4,7.2,1.8,13.5-3.4,16.7c-5.2,3.2-12,2.7-16.4-4.6c-4.4-7.2-1.8-13.5,3.4-16.7S63.5,7.7,67.9,14.9z M63.4,29.7
	c2.6-1.6,1.5-5.7-1.8-11c-3.2-5.3-6.4-8.2-9-6.6c-2.6,1.6-1.4,5.7,1.8,11C57.7,28.5,60.8,31.3,63.4,29.7z"/>
<g>
	<path d="M42.4,41c2,0.7,4,1.4,5.8,2.4c0.8,0.4,1.1,1.3,0.7,2.1c-1,2.2-2.1,4.4-3.1,6.6c-0.6,1.2-1.1,2.4-1.7,3.6
		c-0.3,0.6-1,0.8-1.5,0.5c-1.3-0.8-2.6-0.8-3.9-0.3c-0.4,0.1-0.7,0.3-1.1,0.4c-0.7,0.3-1.2,0.2-1.5-0.5c-0.7-1.3-1.8-2.2-3.1-2.8
		c-1.5-0.6-3-0.4-4.5,0.1c-0.1,0-0.2,0.1-0.4,0.2c-0.6,0.3-1.1,0.1-1.5-0.5c-0.5-0.9-1.1-1.7-1.9-2.3c-0.6-0.4-1.3-0.7-2.1-0.7
		c-0.8,0-1.2-0.5-1.1-1.3c0.3-1.9,0.6-3.9,1-5.8c0.3-1.8,0.6-3.5,0.9-5.3c0.1-0.8,0.8-1.4,1.7-1.3c1.2,0.2,2.5,0.4,3.7,0.8
		C31.4,37.5,40.5,40.4,42.4,41z"/>
	<path d="M24.5,66.1c0.3-1.1,0.6-2.2,0.9-3.3c0.6-2,1.2-4.1,1.8-6.1c0.3-1.2,1.1-1.8,2.2-2.1c0.8-0.2,1.6-0.3,2.4-0.1
		c0.4,0.1,0.8,0.4,1.2,0.6c0.7,0.5,1.3,1.1,1.6,1.9c0.2,0.5,0.2,1.1,0.1,1.6c-1.1,3.2-2.2,6.3-3.3,9.5c0,0,0,0.1-0.1,0.2
		C29,67.5,26.8,66.8,24.5,66.1z"/>
	<path d="M33,68.6c0.1-0.2,0.1-0.2,0.1-0.3c1-2.9,2-5.8,3-8.8c0.2-0.5,0.5-0.9,0.9-1.1c0.8-0.5,1.6-1,2.5-1.2
		c0.3-0.1,0.5-0.1,0.8-0.1c1.3,0,2.1,1.1,1.7,2.3c-0.2,0.6-0.5,1.2-0.8,1.8c-0.9,1.9-1.8,3.8-2.7,5.7c-0.3,0.7-0.7,1.4-1,2.1
		c0,0.1-0.2,0.1-0.3,0.1C35.9,69.1,34.5,68.9,33,68.6z"/>
	<path d="M22.9,65.4c-0.8-0.3-1.5-0.7-2.2-1c-0.5-0.3-1-0.5-1.6-0.8c-0.2-0.1-0.2-0.2-0.2-0.3c0.6-3.3,1.1-6.6,1.7-10
		c0.2-1.1,1-1.8,1.9-1.8c0.5,0,0.9,0.3,1.3,0.6c0.9,0.8,1.5,1.9,1.8,3.1c0.1,0.3,0,0.7,0,1c-0.6,2.3-1.3,4.5-1.9,6.7
		c-0.2,0.7-0.4,1.4-0.6,2.1C22.9,65.1,22.9,65.2,22.9,65.4z"/>
	<path d="M51.5,43.3c-0.3-0.5-0.7-0.9-1.1-1.3c-0.8-0.7-1.8-1.2-2.9-1.5c-2.1-0.7-4.1-1.4-6.2-2.1c0,0-7.8-2.5-10-3.1
		c-1.9-0.6-3.8-1.2-5.8-1.5c-0.9-0.1-1.8-0.2-2.6,0c-0.9,0.2-1.5,0.8-1.7,1.7c-0.3,1.2-0.4,2.4-0.7,3.6c-0.4,2.3-0.8,4.6-1.2,6.8
		c-0.4,2.2-0.8,4.4-1.1,6.6c-0.4,2.5-0.8,4.9-1.2,7.4c-0.3,1.9-0.6,3.8-0.9,5.7c-0.3,2.3,0.5,4.2,2.5,5.4c1.5,0.9,3.1,1.6,4.7,2.1
		c3,1,6,1.8,9.1,2.3c1,0.2,2,0.2,3-0.1c1.3-0.5,2.3-1.5,2.9-2.7c0.5-1,1-2,1.5-3c0.9-1.9,1.8-3.7,2.7-5.6c0.9-2,1.9-3.9,2.9-5.9
		c1-2,1.9-4,2.9-6c1-2.2,2-4.3,3.1-6.5C51.7,44.9,51.9,44.1,51.5,43.3z M50.2,44.7c-1,2.2-2.1,4.4-3.1,6.6c-1,2-1.9,4-2.9,6.1
		c-1,2.2-2.1,4.3-3.1,6.5c-0.9,1.9-1.8,3.8-2.7,5.7C38,70.3,38,70.3,37,70.2c-4.1-0.6-8.1-1.6-12-3c-2.4-0.9-4.7-1.9-6.9-3.1
		c-0.2-0.1-0.3-0.2-0.2-0.5c0.3-1.8,0.6-3.5,0.9-5.3c0.4-2.2,0.8-4.5,1.1-6.7c0.4-2.1,0.7-4.1,1.1-6.2c0.4-2.1,0.7-4.1,1.1-6.2
		c0.2-1.2,0.4-2.3,0.6-3.5c0.1-0.4,0.4-0.7,0.8-0.8c0.7-0.2,1.5-0.1,2.2,0.1c2.6,0.5,5.2,1.3,7.7,2.1c1.2,0.4,9,2.9,11.7,3.8
		c1.5,0.5,2.9,1,4.2,1.9c0.3,0.2,0.6,0.5,0.8,0.7C50.4,44,50.4,44.3,50.2,44.7z"/>
</g>
<path d="M32.9,31.4c-0.4,0-0.8-0.1-1.1-0.4l-1.2-1.1c-0.7-0.6-0.8-1.7-0.1-2.3c0.6-0.7,1.7-0.8,2.3-0.1l1.2,1.1
	c0.7,0.6,0.7,1.7,0.1,2.3C33.8,31.2,33.3,31.4,32.9,31.4z"/>
<path d="M26.6,26c-0.4,0-0.7-0.1-1-0.4l-1.3-1C23.6,24,23.5,23,24,22.3c0.6-0.7,1.6-0.8,2.3-0.2l1.3,1c0.7,0.6,0.8,1.6,0.2,2.3
	C27.6,25.8,27.1,26,26.6,26z"/>
<path d="M20.1,21c-0.3,0-0.7-0.1-1-0.3l-1.3-1c-0.7-0.5-0.9-1.6-0.4-2.3c0.5-0.7,1.6-0.9,2.3-0.4l1.3,1c0.7,0.5,0.9,1.6,0.3,2.3
	C21.1,20.7,20.6,21,20.1,21z"/>
<path d="M13.6,16.1c-0.3,0-0.6,0-0.9-0.2l-1.4-0.8c-0.8-0.4-1.1-1.4-0.7-2.3c0.4-0.8,1.4-1.1,2.3-0.7l1.5,0.8
	c0.8,0.4,1.1,1.5,0.7,2.3C14.6,15.8,14.1,16.1,13.6,16.1z"/>
<path d="M7.2,12.7c-0.3,0.1-0.6,0.1-0.9,0.1l-1.6-0.3c-0.9-0.1-1.5-1-1.4-1.9c0.1-0.9,1-1.5,1.9-1.4l1.6,0.3c0.9,0.2,1.5,1,1.4,1.9
	C8.1,12,7.7,12.5,7.2,12.7z"/>
<path d="M38.3,36.5c-0.4,0-0.8-0.2-1.2-0.5l-0.6-0.6c-0.7-0.6-0.7-1.7,0-2.3c0.4-0.5,1.1-0.6,1.7-0.4c0.5-0.2,1.2-0.2,1.7,0.2
	c0.7,0.6,0.8,1.6,0.2,2.3l-0.5,0.6c-0.3,0.4-0.7,0.6-1.2,0.7C38.4,36.5,38.4,36.5,38.3,36.5z"/>
<path d="M43.4,30.9c-0.4,0-0.8-0.2-1.2-0.5c-0.7-0.6-0.7-1.7,0-2.3l1.2-1.2c0.7-0.6,1.7-0.6,2.3,0c0.6,0.7,0.6,1.7,0,2.3l-1.2,1.2
	C44.2,30.7,43.8,30.9,43.4,30.9z"/>
</svg>
