<?xml version="1.0" encoding="utf-8"?>
<!-- Generator: Adobe Illustrator 22.0.1, SVG Export Plug-In . SVG Version: 6.00 Build 0)  -->
<svg version="1.1" id="Layer_1" xmlns="http://www.w3.org/2000/svg" xmlns:xlink="http://www.w3.org/1999/xlink" x="0px" y="0px"
	 viewBox="0 0 418.9 94.5" style="enable-background:new 0 0 418.9 94.5;" xml:space="preserve">
<path d="M5.1,54.3v-3.5H15v4.3h-1.1L5.1,54.3z M15,84.7v4.3H5.1v-3.5l8.8-0.9H15z M9.2,69.4c0-6.2,0-12.4-0.2-18.5h11.7
	c-0.2,6-0.2,12.2-0.2,18.5v1.2c0,6.2,0,12.4,0.2,18.5H9c0.2-6,0.2-12.2,0.2-18.5V69.4z M15,67.4h6.6c4.1,0,6.1-2.5,6.1-6.8
	c0-3.9-1.8-6.1-5.8-6.1H15v-3.6h9.8c10.7,0,14,3.9,14,8.8c0,4.3-2.5,7.9-12.7,9v-0.5c10.8,0.6,15.1,4.1,15.1,10
	c0,4.7-3.3,10.8-19.2,10.8h-7v-3.6h6.9c4.6,0,7.5-2.5,7.5-7.3c0-5.3-2.5-7.4-7.4-7.4h-7V67.4z"/>
<path d="M40.3,85.6l6.1-0.9h1l5.2,0.9v3.5H40.3V85.6z M56.7,50.8h7l13.1,38.2H65L55.7,59l2.5-4.1L47.3,89.1h-3.8L56.7,50.8z
	 M50.6,74.8h15.8l1.5,3.7H49.6L50.6,74.8z M59.8,85.8l6.3-0.9h5l7.6,0.9v3.3H59.8V85.8z"/>
<path d="M81.2,54.3v-3.5h9.9v4.3h-1.1L81.2,54.3z M92.2,84.7l8.8,0.9v3.5H81.2v-3.5l8.8-0.9H92.2z M85.3,69c0-6,0-12.1-0.2-18.2
	h11.7c-0.2,5.9-0.2,12-0.2,18.2v1.8c0,6.1,0,12.2,0.2,18.2H85.2c0.2-5.9,0.2-12,0.2-18.2V69z M91.3,68H98c5.6,0,6.9-3.4,6.9-6.8
	c0-4.6-2.5-6.7-6.8-6.7h-7v-3.6h10.3c9.3,0,14.4,3.6,14.4,9.5c0,4.3-3.1,8.9-14.5,9.4v-0.6c11.2,0.2,13.4,3.7,14.2,10.4l1.1,8.8
	l-6-3.8l9.8,1.1v3.5c-3.5,0.8-4.2,0.9-7.3,0.9c-5.5,0-9-1.6-9.5-6.9l-0.6-5.7c-0.4-3.6-1.5-5.8-4.5-5.8h-7.3V68z"/>
<path d="M122,54.3v-3.5h19.3v3.5l-8.9,0.9h-1.9L122,54.3z M132.4,84.7l8.9,0.9v3.5H122v-3.5l8.4-0.9H132.4z M126,69
	c0-6,0-12.1-0.2-18.2h12c-0.2,5.9-0.2,12-0.2,18.2v1.8c0,6.1,0,12.2,0.2,18.2h-12c0.2-5.9,0.2-12,0.2-18.2V69z M131.8,71.2v-3.7
	h21.4v3.7H131.8z M143.8,54.3v-3.5H163v3.5l-8.7,0.9h-1.8L143.8,54.3z M154.3,84.7l8.7,0.9v3.5h-19.3v-3.5l8.7-0.9H154.3z M147.5,69
	c0-6,0-12.1-0.2-18.2h12c-0.2,5.9-0.2,12-0.2,18.2v1.9c0,6,0,12.1,0.2,18.2h-12c0.2-5.9,0.2-12,0.2-18.2V69z"/>
<path d="M406.1,71.9c-7.6,8.4-16.6,7.4-22.6,1.9c-6-5.4-7.9-14.3-0.3-22.7c7.6-8.4,16.6-7.4,22.6-1.9
	C411.8,54.6,413.7,63.5,406.1,71.9z M385.4,71.7c3,2.7,7.8-0.3,13.3-6.4c5.5-6.1,8.1-11.2,5-13.9c-3-2.7-7.9,0.3-13.4,6.4
	C384.9,63.9,382.4,68.9,385.4,71.7z"/>
<path d="M206.2,54.3v-3.5h9.9v4.3H215L206.2,54.3z M218.3,84.7l8.8,0.9v3.5h-21v-3.5l8.8-0.9H218.3z M210.3,69c0-6,0-12.1-0.2-18.2
	h12c-0.2,5.9-0.2,12-0.2,18.2v3.6c0,4.3,0,10.4,0.2,16.5h-12c0.2-5.9,0.2-12,0.2-18.2V69z M222.9,74.6h-6.9v-3.5h6.6
	c4.4,0,6.9-3.5,6.9-8.8s-2.8-7.9-7.1-7.9h-6.4v-3.6h6.1c13.2,0,18,4.5,18,11.5C240.2,69.1,235.9,74.6,222.9,74.6z"/>
<path d="M242,54.3v-3.5h9.9v4.3h-1.1L242,54.3z M254.2,84.7l8.8,0.9v3.5h-21v-3.5l8.8-0.9H254.2z M246.1,69c0-6,0-12.1-0.2-18.2h12
	c-0.2,5.9-0.2,12-0.2,18.2v3.6c0,4.3,0,10.4,0.2,16.5h-12c0.2-5.9,0.2-12,0.2-18.2V69z M258.8,74.6h-6.9v-3.5h6.6
	c4.4,0,6.9-3.5,6.9-8.8s-2.8-7.9-7.1-7.9h-6.4v-3.6h6.1c13.2,0,18,4.5,18,11.5C276,69.1,271.8,74.6,258.8,74.6z"/>
<path d="M277.9,54.3v-3.5h9.9v4.3h-1.1L277.9,54.3z M287.8,84.7v4.3h-9.9v-3.5l8.8-0.9H287.8z M282,69c0-6,0-12.1-0.2-18.2h12
	c-0.2,5.9-0.2,12-0.2,18.2v1.8c0,6.1,0,12.2,0.2,18.2h-12c0.2-5.9,0.2-12,0.2-18.2V69z M301.3,50.8l4.9,3.5h-18.4v-3.5h20.3l0.4,10
	H303L301.3,50.8z M300.6,71.1h-12.8v-3.8h12.8V71.1z M309.7,79.1l-0.4,10h-21.5v-3.4h19.6l-4.9,3.4l1.7-10H309.7z M298.8,68.5
	l0.9-5.4h3.7v12.1h-3.7l-0.9-5.7V68.5z"/>
<path d="M312.5,54.3v-3.5h9.9v4.3h-1.1L312.5,54.3z M323.5,84.7l8.8,0.9v3.5h-19.8v-3.5l8.8-0.9H323.5z M316.6,69
	c0-6,0-12.1-0.2-18.2h11.7c-0.2,5.9-0.2,12-0.2,18.2v1.8c0,6.1,0,12.2,0.2,18.2h-11.7c0.2-5.9,0.2-12,0.2-18.2V69z M322.6,68h6.7
	c5.6,0,6.9-3.4,6.9-6.8c0-4.6-2.5-6.7-6.8-6.7h-7v-3.6h10.3c9.3,0,14.4,3.6,14.4,9.5c0,4.3-3.1,8.9-14.5,9.4v-0.6
	c11.2,0.2,13.4,3.7,14.2,10.4l1.1,8.8l-6-3.8l9.8,1.1v3.5c-3.5,0.8-4.2,0.9-7.3,0.9c-5.5,0-9-1.6-9.5-6.9l-0.6-5.7
	c-0.4-3.6-1.5-5.8-4.5-5.8h-7.3V68z"/>
<g>
	<path d="M196.4,56.3c2,0.7,4,1.4,5.8,2.4c0.8,0.4,1.1,1.3,0.7,2.1c-1,2.2-2.1,4.4-3.1,6.6c-0.6,1.2-1.1,2.4-1.7,3.6
		c-0.3,0.6-1,0.8-1.5,0.5c-1.3-0.8-2.6-0.8-3.9-0.3c-0.4,0.1-0.7,0.3-1.1,0.4c-0.7,0.3-1.2,0.2-1.5-0.5c-0.7-1.3-1.8-2.2-3.1-2.8
		c-1.5-0.6-3-0.4-4.5,0.1c-0.1,0-0.2,0.1-0.4,0.2c-0.6,0.3-1.1,0.1-1.5-0.5c-0.5-0.9-1.1-1.7-1.9-2.3c-0.6-0.4-1.3-0.7-2.1-0.7
		c-0.8,0-1.2-0.5-1.1-1.3c0.3-1.9,0.6-3.9,1-5.8c0.3-1.8,0.6-3.5,0.9-5.3c0.1-0.8,0.8-1.4,1.7-1.3c1.2,0.2,2.5,0.4,3.7,0.8
		C185.5,52.8,194.6,55.6,196.4,56.3z"/>
	<path d="M178.6,81.3c0.3-1.1,0.6-2.2,0.9-3.3c0.6-2,1.2-4.1,1.8-6.1c0.3-1.2,1.1-1.8,2.2-2.1c0.8-0.2,1.6-0.3,2.4-0.1
		c0.4,0.1,0.8,0.4,1.2,0.6c0.7,0.5,1.3,1.1,1.6,1.9c0.2,0.5,0.2,1.1,0.1,1.6c-1.1,3.2-2.2,6.3-3.3,9.5c0,0,0,0.1-0.1,0.2
		C183.1,82.8,180.9,82,178.6,81.3z"/>
	<path d="M187.1,83.9c0.1-0.2,0.1-0.2,0.1-0.3c1-2.9,2-5.8,3-8.8c0.2-0.5,0.5-0.9,0.9-1.1c0.8-0.5,1.6-1,2.5-1.2
		c0.3-0.1,0.5-0.1,0.8-0.1c1.3,0,2.1,1.1,1.7,2.3c-0.2,0.6-0.5,1.2-0.8,1.8c-0.9,1.9-1.8,3.8-2.7,5.7c-0.3,0.7-0.7,1.4-1,2.1
		c0,0.1-0.2,0.1-0.3,0.1C189.9,84.4,188.5,84.1,187.1,83.9z"/>
	<path d="M176.9,80.6c-0.8-0.3-1.5-0.7-2.2-1c-0.5-0.3-1-0.5-1.6-0.8c-0.2-0.1-0.2-0.2-0.2-0.3c0.6-3.3,1.1-6.6,1.7-10
		c0.2-1.1,1-1.8,1.9-1.8c0.5,0,0.9,0.3,1.3,0.6c0.9,0.8,1.5,1.9,1.8,3.1c0.1,0.3,0,0.7,0,1c-0.6,2.3-1.3,4.5-1.9,6.7
		c-0.2,0.7-0.4,1.4-0.6,2.1C177,80.4,177,80.5,176.9,80.6z"/>
	<path d="M205.5,58.5c-0.3-0.5-0.7-0.9-1.1-1.3c-0.8-0.7-1.8-1.2-2.9-1.5c-2.1-0.7-4.1-1.4-6.2-2.1c0,0-7.8-2.5-10-3.1
		c-1.9-0.6-3.8-1.2-5.8-1.5c-0.9-0.1-1.8-0.2-2.6,0c-0.9,0.2-1.5,0.8-1.7,1.7c-0.3,1.2-0.4,2.4-0.7,3.6c-0.4,2.3-0.8,4.6-1.2,6.8
		c-0.4,2.2-0.8,4.4-1.1,6.6c-0.4,2.5-0.8,4.9-1.2,7.4c-0.3,1.9-0.6,3.8-0.9,5.7c-0.3,2.3,0.5,4.2,2.5,5.4c1.5,0.9,3.1,1.6,4.7,2.1
		c3,1,6,1.8,9.1,2.3c1,0.2,2,0.2,3-0.1c1.3-0.5,2.3-1.5,2.9-2.7c0.5-1,1-2,1.5-3c0.9-1.9,1.8-3.7,2.7-5.6c0.9-2,1.9-3.9,2.9-5.9
		c1-2,1.9-4,2.9-6c1-2.2,2-4.3,3.1-6.5C205.8,60.1,206,59.3,205.5,58.5z M204.3,59.9c-1,2.2-2.1,4.4-3.1,6.6c-1,2-1.9,4-2.9,6.1
		c-1,2.2-2.1,4.3-3.1,6.5c-0.9,1.9-1.8,3.8-2.7,5.7c-0.4,0.9-0.4,0.9-1.4,0.8c-4.1-0.6-8.1-1.6-12-3c-2.4-0.9-4.7-1.9-6.9-3.1
		c-0.2-0.1-0.3-0.2-0.2-0.5c0.3-1.8,0.6-3.5,0.9-5.3c0.4-2.2,0.8-4.5,1.1-6.7c0.4-2.1,0.7-4.1,1.1-6.2c0.4-2.1,0.7-4.1,1.1-6.2
		c0.2-1.2,0.4-2.3,0.6-3.5c0.1-0.4,0.4-0.7,0.8-0.8c0.7-0.2,1.5-0.1,2.2,0.1c2.6,0.5,5.2,1.3,7.7,2.1c1.2,0.4,9,2.9,11.7,3.8
		c1.5,0.5,2.9,1,4.2,1.9c0.3,0.2,0.6,0.5,0.8,0.7C204.4,59.3,204.4,59.6,204.3,59.9z"/>
</g>
<g>
	<path d="M13.1,41.2c-0.4,0-0.9-0.2-1.2-0.5c-0.6-0.7-0.6-1.7,0.1-2.3l0.6-0.6c0.7-0.6,1.7-0.6,2.3,0.1c0.6,0.7,0.6,1.7-0.1,2.3
		l-0.6,0.5C13.9,41,13.5,41.2,13.1,41.2z"/>
	<path d="M185.4,44.9c-0.4,0-0.8-0.1-1.1-0.4l-1.2-1.1c-0.7-0.6-0.8-1.7-0.1-2.3c0.6-0.7,1.7-0.8,2.3-0.1l1.2,1.1
		c0.7,0.6,0.7,1.7,0.1,2.3C186.3,44.7,185.8,44.9,185.4,44.9z M179.1,39.5c-0.4,0-0.7-0.1-1-0.4l-1.3-1c-0.7-0.6-0.8-1.6-0.2-2.3
		c0.6-0.7,1.6-0.8,2.3-0.2l1.3,1c0.7,0.6,0.8,1.6,0.2,2.3C180.1,39.3,179.6,39.5,179.1,39.5z M18.8,36.4c-0.5,0-1-0.2-1.3-0.6
		c-0.6-0.7-0.4-1.8,0.3-2.3l1.3-1c0.7-0.6,1.8-0.4,2.3,0.3c0.6,0.7,0.4,1.8-0.3,2.3l-1.3,1C19.5,36.3,19.1,36.4,18.8,36.4z
		 M172.6,34.5c-0.3,0-0.7-0.1-1-0.3l-1.3-1c-0.7-0.5-0.9-1.6-0.4-2.3c0.5-0.7,1.6-0.9,2.3-0.4l1.3,1c0.7,0.5,0.9,1.6,0.3,2.3
		C173.6,34.2,173.1,34.5,172.6,34.5z M25.5,31.6c-0.5,0-1.1-0.3-1.4-0.7c-0.5-0.8-0.3-1.8,0.4-2.3l1.4-0.9c0.8-0.5,1.8-0.3,2.3,0.5
		c0.5,0.8,0.3,1.8-0.5,2.3l-1.3,0.9C26.1,31.5,25.8,31.6,25.5,31.6z M165.9,29.7c-0.3,0-0.6-0.1-0.9-0.3l-1.4-0.9
		c-0.8-0.5-1-1.5-0.5-2.3c0.5-0.8,1.5-1,2.3-0.5l1.4,0.9c0.8,0.5,1,1.5,0.5,2.3C167,29.4,166.5,29.7,165.9,29.7z M32.4,27.1
		c-0.6,0-1.1-0.3-1.4-0.8c-0.5-0.8-0.2-1.8,0.6-2.3l1.4-0.8c0.8-0.5,1.8-0.2,2.3,0.6c0.5,0.8,0.2,1.8-0.6,2.3l-1.4,0.8
		C33,27.1,32.7,27.1,32.4,27.1z M159,25.3c-0.3,0-0.6-0.1-0.8-0.2l-1.4-0.8c-0.8-0.5-1.1-1.5-0.6-2.3c0.5-0.8,1.5-1.1,2.3-0.6
		l1.4,0.8c0.8,0.5,1,1.5,0.6,2.3C160.1,25,159.5,25.3,159,25.3z M39.6,23.1c-0.6,0-1.2-0.3-1.5-0.9c-0.4-0.8-0.1-1.8,0.7-2.2
		l1.5-0.8c0.8-0.4,1.8-0.1,2.2,0.7c0.4,0.8,0.1,1.8-0.7,2.2l-1.4,0.7C40.1,23,39.8,23.1,39.6,23.1z M151.8,21.3
		c-0.3,0-0.5-0.1-0.8-0.2l-1.5-0.7c-0.8-0.4-1.2-1.4-0.7-2.2c0.4-0.8,1.4-1.2,2.2-0.7l1.5,0.8c0.8,0.4,1.1,1.4,0.7,2.2
		C152.9,21,152.4,21.3,151.8,21.3z M47,19.5c-0.6,0-1.2-0.4-1.5-1c-0.4-0.8,0-1.8,0.8-2.2l1.5-0.7c0.8-0.4,1.8,0,2.2,0.8
		c0.4,0.8,0,1.8-0.8,2.2l-1.5,0.7C47.4,19.4,47.2,19.5,47,19.5z M144.3,17.8c-0.2,0-0.5,0-0.7-0.1l-1.5-0.6
		c-0.8-0.4-1.2-1.3-0.9-2.2c0.4-0.8,1.3-1.2,2.2-0.9l1.5,0.7c0.8,0.4,1.2,1.3,0.8,2.2C145.6,17.4,145,17.8,144.3,17.8z M54.6,16.3
		c-0.7,0-1.3-0.4-1.6-1.1c-0.3-0.9,0.1-1.8,1-2.1l1.6-0.6c0.9-0.3,1.8,0.1,2.1,1c0.3,0.9-0.1,1.8-1,2.1l-1.5,0.6
		C55,16.2,54.7,16.3,54.6,16.3z M136.7,14.7c-0.2,0-0.4,0-0.6-0.1l-1.5-0.5c-0.9-0.3-1.3-1.2-1-2.1s1.2-1.3,2.1-1l1.6,0.6
		c0.9,0.3,1.3,1.3,1,2.1C138,14.3,137.4,14.7,136.7,14.7z M62.3,13.5c-0.7,0-1.4-0.5-1.6-1.2c-0.3-0.9,0.2-1.8,1.1-2.1l1.6-0.5
		c0.9-0.3,1.8,0.2,2.1,1.1c0.3,0.9-0.2,1.8-1.1,2.1l-1.5,0.5C62.7,13.5,62.5,13.5,62.3,13.5z M128.9,12.2c-0.2,0-0.3,0-0.5-0.1
		l-1.6-0.4c-0.9-0.2-1.4-1.2-1.2-2c0.2-0.9,1.2-1.4,2-1.2l1.6,0.4c0.9,0.3,1.4,1.2,1.1,2.1C130.2,11.7,129.6,12.2,128.9,12.2z
		 M70.2,11.3c-0.7,0-1.4-0.5-1.6-1.3c-0.2-0.9,0.3-1.8,1.2-2l1.6-0.4c0.9-0.2,1.8,0.4,2,1.2c0.2,0.9-0.4,1.8-1.2,2l-1.6,0.4
		C70.5,11.3,70.4,11.3,70.2,11.3z M120.9,10.2c-0.1,0-0.2,0-0.3,0l-1.6-0.3c-0.9-0.2-1.5-1-1.3-1.9c0.2-0.9,1-1.5,1.9-1.3l1.6,0.3
		c0.9,0.2,1.5,1.1,1.3,2C122.3,9.6,121.6,10.2,120.9,10.2z M78.3,9.6c-0.8,0-1.5-0.6-1.6-1.4c-0.2-0.9,0.4-1.8,1.4-1.9L79.7,6
		c0.9-0.1,1.8,0.5,1.9,1.4c0.1,0.9-0.5,1.8-1.4,1.9l-1.6,0.3C78.5,9.6,78.4,9.6,78.3,9.6z M112.7,8.8c-0.1,0-0.1,0-0.2,0l-1.6-0.2
		c-0.9-0.1-1.6-0.9-1.5-1.8s0.9-1.6,1.8-1.5l1.7,0.2c0.9,0.1,1.5,1,1.4,1.9C114.3,8.2,113.6,8.8,112.7,8.8z M86.5,8.4
		c-0.8,0-1.6-0.6-1.6-1.5c-0.1-0.9,0.6-1.7,1.5-1.8L88,5c0.9-0.1,1.7,0.6,1.8,1.5c0.1,0.9-0.6,1.7-1.5,1.8l-1.6,0.2
		C86.6,8.4,86.5,8.4,86.5,8.4z M104.6,8C104.5,8,104.5,8,104.6,8l-1.7-0.1c-0.9,0-1.6-0.8-1.6-1.7c0-0.9,0.8-1.6,1.7-1.6l1.7,0.1
		c0.9,0.1,1.6,0.8,1.6,1.8C106.2,7.3,105.4,8,104.6,8z M94.7,7.9c-0.9,0-1.6-0.7-1.7-1.6c0-0.9,0.7-1.7,1.6-1.7l1.7,0
		C97.2,4.5,98,5.2,98,6.2s-0.7,1.7-1.6,1.7L94.7,7.9C94.7,7.9,94.7,7.9,94.7,7.9z"/>
	<path d="M190.8,50c-0.4,0-0.8-0.2-1.2-0.5l-0.6-0.6c-0.7-0.6-0.7-1.7,0-2.3c0.4-0.5,1.1-0.6,1.7-0.4c0.5-0.2,1.2-0.2,1.7,0.2
		c0.7,0.6,0.8,1.6,0.2,2.3l-0.5,0.6c-0.3,0.4-0.7,0.6-1.2,0.7C190.9,50,190.9,50,190.8,50z"/>
	<path d="M195.9,44.4c-0.4,0-0.8-0.2-1.2-0.5c-0.7-0.6-0.7-1.7,0-2.3l1.2-1.2c0.7-0.6,1.7-0.6,2.3,0c0.6,0.7,0.6,1.7,0,2.3l-1.2,1.2
		C196.7,44.2,196.3,44.4,195.9,44.4z M287.7,40.3c-0.4,0-0.8-0.1-1.1-0.4l-1.3-1.1c-0.7-0.6-0.8-1.6-0.2-2.3
		c0.6-0.7,1.6-0.8,2.3-0.2l1.3,1.1c0.7,0.6,0.8,1.7,0.2,2.3C288.6,40.1,288.1,40.3,287.7,40.3z M202.1,38.6c-0.5,0-0.9-0.2-1.3-0.6
		c-0.6-0.7-0.5-1.7,0.2-2.3c0.4-0.4,0.9-0.7,1.3-1.1c0.7-0.6,1.8-0.5,2.3,0.2c0.6,0.7,0.5,1.8-0.2,2.3l-1.3,1.1
		C202.8,38.5,202.5,38.6,202.1,38.6z M281.1,35c-0.3,0-0.7-0.1-1-0.3l-1.3-1c-0.7-0.5-0.9-1.6-0.4-2.3c0.5-0.7,1.6-0.9,2.3-0.4
		l1.4,1c0.7,0.5,0.9,1.6,0.4,2.3C282.1,34.8,281.6,35,281.1,35z M208.8,33.5c-0.5,0-1-0.3-1.4-0.7c-0.5-0.8-0.3-1.8,0.4-2.3l1.4-1
		c0.8-0.5,1.8-0.3,2.3,0.5c0.5,0.8,0.3,1.8-0.5,2.3l-1.4,0.9C209.5,33.4,209.1,33.5,208.8,33.5z M274.1,30.3c-0.3,0-0.6-0.1-0.8-0.2
		c-0.5-0.3-1-0.6-1.4-0.8c-0.8-0.4-1.1-1.5-0.6-2.3c0.4-0.8,1.5-1.1,2.3-0.6c0.5,0.3,1,0.6,1.5,0.9c0.8,0.5,1,1.5,0.6,2.3
		C275.2,30,274.6,30.3,274.1,30.3z M216,29c-0.6,0-1.2-0.3-1.5-0.9c-0.4-0.8-0.1-1.8,0.7-2.2c0.5-0.3,1-0.5,1.5-0.8
		c0.8-0.4,1.8-0.1,2.2,0.7c0.4,0.8,0.1,1.8-0.7,2.2c-0.5,0.2-1,0.5-1.5,0.8C216.6,29,216.3,29,216,29z M266.5,26.5
		c-0.2,0-0.4,0-0.7-0.1c-0.5-0.2-1-0.4-1.5-0.6c-0.8-0.3-1.3-1.3-0.9-2.2c0.3-0.9,1.3-1.3,2.2-0.9c0.5,0.2,1.1,0.4,1.6,0.7
		c0.8,0.4,1.2,1.3,0.9,2.2C267.8,26.1,267.2,26.5,266.5,26.5z M223.7,25.5c-0.7,0-1.3-0.4-1.5-1.1c-0.3-0.9,0.1-1.8,0.9-2.1
		c0.5-0.2,1.1-0.4,1.6-0.6c0.9-0.3,1.8,0.1,2.1,1c0.3,0.9-0.1,1.8-1,2.1c-0.5,0.2-1,0.4-1.5,0.6C224.1,25.5,223.9,25.5,223.7,25.5z
		 M258.6,23.6c-0.1,0-0.3,0-0.4-0.1c-0.5-0.1-1.1-0.3-1.6-0.4c-0.9-0.2-1.4-1.1-1.2-2c0.2-0.9,1.1-1.4,2-1.2
		c0.6,0.1,1.1,0.3,1.7,0.4c0.9,0.2,1.4,1.2,1.2,2C260,23.1,259.3,23.6,258.6,23.6z M231.8,23c-0.8,0-1.4-0.5-1.6-1.3
		c-0.2-0.9,0.4-1.8,1.2-2c0.6-0.1,1.1-0.3,1.7-0.4c0.9-0.2,1.8,0.4,2,1.3c0.2,0.9-0.4,1.8-1.3,2c-0.5,0.1-1.1,0.2-1.6,0.3
		C232,23,231.9,23,231.8,23z M250.3,22c-0.1,0-0.1,0-0.2,0c-0.5-0.1-1.1-0.1-1.6-0.2c-0.9-0.1-1.6-0.9-1.5-1.8
		c0.1-0.9,0.9-1.6,1.8-1.5c0.6,0.1,1.2,0.1,1.7,0.2c0.9,0.1,1.6,0.9,1.5,1.8C251.8,21.3,251.1,22,250.3,22z M240.1,21.7
		c-0.9,0-1.6-0.7-1.7-1.5c-0.1-0.9,0.6-1.7,1.5-1.8c0.6,0,1.2-0.1,1.7-0.1c0.9,0,1.7,0.7,1.7,1.6c0,0.9-0.7,1.7-1.6,1.7
		c-0.5,0-1.1,0.1-1.6,0.1C240.2,21.7,240.2,21.7,240.1,21.7z"/>
	<path d="M293.3,45.6c-0.4,0-0.9-0.2-1.2-0.5l-0.6-0.6c-0.7-0.6-0.7-1.7,0-2.3c0.5-0.5,1.2-0.6,1.8-0.4c0.6-0.2,1.3-0.1,1.8,0.4
		c0.6,0.7,0.6,1.7-0.1,2.3l-0.5,0.5C294.1,45.4,293.7,45.6,293.3,45.6C293.3,45.6,293.3,45.6,293.3,45.6z"/>
	<path d="M298.9,40.7c-0.5,0-1-0.2-1.3-0.6c-0.6-0.7-0.4-1.8,0.3-2.3l1.3-1c0.7-0.6,1.8-0.4,2.3,0.3c0.6,0.7,0.4,1.8-0.3,2.3l-1.3,1
		C299.6,40.6,299.2,40.7,298.9,40.7z M375.7,40.2c-0.4,0-0.8-0.1-1.1-0.4c-0.4-0.4-0.8-0.7-1.2-1.1c-0.7-0.6-0.8-1.7-0.1-2.3
		c0.6-0.7,1.7-0.8,2.3-0.1c0.4,0.4,0.8,0.7,1.3,1.1c0.7,0.6,0.7,1.7,0.1,2.3C376.6,40,376.2,40.2,375.7,40.2z M305.7,35.9
		c-0.5,0-1.1-0.3-1.4-0.8c-0.5-0.8-0.3-1.8,0.5-2.3c0.5-0.3,0.9-0.6,1.4-0.9c0.8-0.5,1.8-0.2,2.3,0.6c0.5,0.8,0.2,1.8-0.6,2.3
		l-1.4,0.9C306.3,35.8,306,35.9,305.7,35.9z M369.3,35c-0.3,0-0.7-0.1-1-0.3c-0.4-0.3-0.9-0.6-1.3-0.9c-0.8-0.5-1-1.5-0.4-2.3
		c0.5-0.8,1.6-1,2.3-0.4c0.5,0.3,0.9,0.6,1.4,1c0.7,0.5,0.9,1.6,0.4,2.3C370.3,34.7,369.8,35,369.3,35z M312.9,31.8
		c-0.6,0-1.2-0.3-1.5-0.9c-0.4-0.8-0.1-1.8,0.7-2.2l1.5-0.7c0.8-0.4,1.8,0,2.2,0.8c0.4,0.8,0,1.8-0.8,2.2l-1.5,0.7
		C313.4,31.7,313.1,31.8,312.9,31.8z M362.3,30.6c-0.3,0-0.5-0.1-0.8-0.2c-0.5-0.2-1-0.5-1.4-0.7c-0.8-0.4-1.2-1.4-0.8-2.2
		c0.4-0.8,1.4-1.2,2.2-0.8c0.5,0.2,1,0.5,1.5,0.8c0.8,0.4,1.1,1.4,0.7,2.2C363.4,30.3,362.9,30.6,362.3,30.6z M320.5,28.5
		c-0.7,0-1.3-0.4-1.6-1.1c-0.3-0.9,0.1-1.8,1-2.1c0.5-0.2,1.1-0.4,1.6-0.6c0.9-0.3,1.8,0.2,2.1,1c0.3,0.9-0.2,1.8-1,2.1
		c-0.5,0.2-1,0.4-1.5,0.5C320.8,28.4,320.7,28.5,320.5,28.5z M354.6,27.3c-0.2,0-0.4,0-0.5-0.1c-0.5-0.2-1-0.3-1.5-0.5
		c-0.9-0.3-1.4-1.2-1.1-2.1c0.3-0.9,1.2-1.4,2.1-1.1c0.5,0.2,1.1,0.3,1.6,0.5c0.9,0.3,1.3,1.2,1.1,2.1
		C356,26.9,355.3,27.3,354.6,27.3z M328.4,26.1c-0.8,0-1.5-0.5-1.6-1.3c-0.2-0.9,0.4-1.8,1.3-2c0.6-0.1,1.1-0.2,1.7-0.3
		c0.9-0.2,1.8,0.4,1.9,1.3c0.2,0.9-0.4,1.8-1.3,1.9c-0.5,0.1-1.1,0.2-1.6,0.3C328.7,26.1,328.5,26.1,328.4,26.1z M346.6,25.4
		c-0.1,0-0.2,0-0.2,0c-0.5-0.1-1.1-0.1-1.6-0.2c-0.9-0.1-1.6-0.9-1.5-1.8c0.1-0.9,0.9-1.6,1.8-1.5c0.6,0.1,1.1,0.1,1.7,0.2
		c0.9,0.1,1.5,1,1.4,1.9C348.1,24.8,347.4,25.4,346.6,25.4z M336.6,25c-0.9,0-1.6-0.7-1.7-1.6c-0.1-0.9,0.6-1.7,1.6-1.8
		c0.6,0,1.1-0.1,1.7-0.1c0.8,0,1.7,0.7,1.7,1.6c0,0.9-0.7,1.7-1.6,1.7C337.8,24.9,337.3,25,336.6,25C336.7,25,336.7,25,336.6,25z"/>
	<path d="M380.9,45.5c-0.4,0-0.8-0.2-1.1-0.5l-0.6-0.6c-0.6-0.7-0.6-1.7,0.1-2.3c0.7-0.6,1.7-0.6,2.3,0.1l0.4,0.5
		c0.6,0.7,0.6,1.8,0,2.4C381.7,45.4,381.3,45.5,380.9,45.5z"/>
</g>
</svg>
